<svg xmlns="http://www.w3.org/2000/svg" version="1.1" xmlns:xlink="http://www.w3.org/1999/xlink" xmlns:svgjs="http://svgjs.dev/svgjs" width="1440" height="560" preserveAspectRatio="none" viewBox="0 0 1440 560"><g mask="url(&quot;#SvgjsMask1000&quot;)" fill="none"><rect width="1440" height="560" x="0" y="0" fill="#0e2a47"></rect><path d="M529.27 0C566.95 39.57 539.52 70.55 553.33 140C554.88 147.79 552.61 152.49 560 154.48C625.94 172.21 635.84 184.68 700 179.44C724.5 177.44 718.28 159.34 737.33 140C788.28 88.29 778.89 55.76 840 37.33C900.22 19.17 922.79 79.05 980 66.82C1010.09 60.39 985.43 13.92 1014.59 0C1055.43 -19.49 1067.3 0 1120 0C1190 0 1190 0 1260 0C1330 0 1330 0 1400 0C1470 0 1505 -35 1540 0C1575 35 1540 70 1540 140C1540 210 1540 210 1540 280C1540 350 1540 350 1540 420C1540 490 1575 525 1540 560C1505 595 1470 560 1400 560C1330 560 1330 560 1260 560C1190 560 1190 560 1120 560C1070.19 560 1066.26 570.92 1020.38 560C996.26 554.26 1002.47 526.67 980 526.67C944.78 526.67 944.06 550.7 905 560C874.06 567.37 872.5 560 840 560C770 560 770 560 700 560C630 560 630 560 560 560C490 560 490 560 420 560C350 560 350 560 280 560C210 560 210 560 140 560C70 560 35 595 0 560C-35 525 0 490 0 420C0 350 0 350 0 280C0 210 0 210 0 140C0 70 -35 35 0 0C35 -35 70 0 140 0C210 0 210 0 280 0C350 0 350 0 420 0C474.63 0 500.29 -30.43 529.27 0" stroke="rgba(51, 121, 194, 0.58)" stroke-width="2"></path><path d="M280 233.33C257.48 237.55 255.07 256.73 255.07 280C255.07 302.82 258.32 314.33 280 325.5C340.79 356.83 362.45 378.4 420 365C460.13 355.65 475.35 315.66 475.35 280C475.35 257.71 450.31 256.33 420 249.09C352.64 233 339.95 222.09 280 233.33" stroke="rgba(51, 121, 194, 0.58)" stroke-width="2"></path><path d="M840 277.5C838.64 277.5 837.31 278.41 837.31 280C837.31 283.55 838.62 287.78 840 287.78C841.39 287.78 842.86 283.52 842.86 280C842.86 278.38 841.41 277.5 840 277.5" stroke="rgba(51, 121, 194, 0.58)" stroke-width="2"></path><path d="M140 393.51C119.48 393.51 100 406.94 100 420C100 432.91 119.51 445.45 140 445.45C163.41 445.45 187.8 432.93 187.8 420C187.8 406.96 163.38 393.51 140 393.51" stroke="rgba(51, 121, 194, 0.58)" stroke-width="2"></path><path d="M560 387.06C535 387.06 501.05 406.38 501.05 420C501.05 432.51 532.83 439.31 560 439.31C571.96 439.31 579.31 430.89 579.31 420C579.31 404.77 574.13 387.06 560 387.06" stroke="rgba(51, 121, 194, 0.58)" stroke-width="2"></path><path d="M140 88.42C85.42 54.71 44 25.47 44 0C44 -18.74 92 0 140 0C210 0 210 0 280 0C350 0 350 0 420 0C453.29 0 474.08 -22.51 486.59 0C512.97 47.49 517.19 80.65 497.78 140C483.89 182.47 463.28 202.93 420 203.64C354.39 204.72 350.07 173.45 280 143.59C275.4 141.63 275.32 141.83 270.67 140C205.32 114.25 198.75 124.71 140 88.42" stroke="rgba(51, 121, 194, 0.58)" stroke-width="2"></path><path d="M784 140C784 109.98 806.58 84 840 84C900.21 84 907.59 109.44 971.25 140C977.59 143.04 976.11 151.2 980 151.2C983.47 151.2 983.12 145.67 985.96 140C1021 70.07 1008.25 49.62 1055.76 0C1075.27 -20.38 1087.88 0 1120 0C1190 0 1190 0 1260 0C1330 0 1330 0 1400 0C1449.78 0 1453.65 -10.85 1499.56 0C1523.65 5.69 1533.36 10.11 1540 33.09C1553.58 80.11 1540 86.55 1540 140C1540 210 1540 210 1540 280C1540 300.59 1553.42 321.18 1540 321.18C1506.76 321.18 1492.14 302.85 1446.67 280C1422.14 267.67 1418.02 271.03 1400 250.83C1355.57 201.03 1362.9 193.85 1321.76 140C1292.9 102.23 1286.22 67.59 1260 67.59C1237.84 67.59 1233.5 101.33 1225 140C1210.16 207.54 1202.71 213.81 1213.33 280C1220.21 322.93 1223.25 344.46 1260 358.24C1316.58 379.46 1346.29 329.79 1400 350C1428.36 360.67 1399.48 395.08 1424.14 420C1469.48 465.82 1501.46 444.92 1540 491.49C1559.39 514.92 1563 548.74 1540 560C1493 583 1470 560 1400 560C1400 560 1400 560 1400 560C1330 540 1314.7 559.22 1260 520C1217.07 489.22 1242.1 460.77 1204.74 420C1172.1 384.37 1161.19 367.21 1120 367.21C1083.82 367.21 1085.2 393.88 1050 420C1015.2 445.83 1017.22 471.11 980 471.11C930.29 471.11 890.71 462.4 876.13 420C857.85 366.85 925.04 341 914.29 280C906.98 238.5 873.44 250.93 840 215C808.29 180.93 784 175.48 784 140" stroke="rgba(51, 121, 194, 0.58)" stroke-width="2"></path><path d="M0 140C35.69 114.51 83.32 141.69 140 180C186.88 211.69 207.12 233.38 207.12 280C207.12 316.49 176.93 317.26 140 346.22C87.66 387.26 28.57 383.61 28.57 420C28.57 455.96 82.91 490.91 140 490.91C205.21 490.91 207.43 456.58 273.17 420C277.43 417.63 275.84 413 280 413C288.01 413 292.42 412.3 297.5 420C340.88 485.8 382.38 516.31 376.92 560C373.63 586.31 328.46 560 280 560C210 560 210 560 140 560C70 560 35 595 0 560C-35 525 0 490 0 420C0 350 0 350 0 280C0 210 -34.31 164.51 0 140" stroke="rgba(51, 121, 194, 0.58)" stroke-width="2"></path><path d="M556.74 280C556.74 277.65 557.28 276.14 560 275.17C628.91 250.51 633.89 227.21 700 228.73C738.89 229.62 750.11 244.13 770 280C803.14 339.77 796.49 348.88 806.06 420C815.33 488.88 837.66 520.43 807.69 560C784.63 590.43 753.85 560 700 560C630 560 630 560 560 560C517.32 560 474.63 573.56 474.63 560C474.63 543.39 520.28 533.35 560 499.66C602.8 463.35 639.66 464.94 639.66 420C639.66 357.17 600.12 351.86 560 284.12C558.66 281.86 556.74 282.12 556.74 280" stroke="rgba(51, 121, 194, 0.58)" stroke-width="2"></path><path d="M1087.69 560C1087.69 544.6 1097.67 512 1120 512C1160.49 512 1213.33 547.3 1213.33 560C1213.33 571.3 1166.66 560 1120 560C1103.85 560 1087.69 568.6 1087.69 560" stroke="rgba(51, 121, 194, 0.58)" stroke-width="2"></path><path d="M280 28C230.54 -3.64 160 7.09 160 0C160 -6.91 220 0 280 0C350 0 350 0 420 0C431.95 0 442.28 -10.21 443.9 0C453.39 59.79 452.14 74.37 442.22 140C440.19 153.46 432.34 158.18 420 158.18C400.64 158.18 395.03 155.07 378.82 140C325.03 89.98 339.95 66.36 280 28" stroke="rgba(51, 121, 194, 0.58)" stroke-width="2"></path><path d="M830.67 140C830.67 135 834.43 130.67 840 130.67C850.04 130.67 861.88 134.7 861.88 140C861.88 145.61 849.64 152.5 840 152.5C834.03 152.5 830.67 145.91 830.67 140" stroke="rgba(51, 121, 194, 0.58)" stroke-width="2"></path><path d="M1060.43 140C1084.31 71.96 1071.25 60.38 1096.94 0C1101.03 -9.62 1108.47 0 1120 0C1159.2 0 1190.16 -24.73 1198.4 0C1213.49 45.27 1178.4 69.32 1166.67 140C1155.17 209.32 1169.74 215.2 1151.93 280C1146.4 300.12 1139.86 309.84 1120 309.84C1063.23 309.84 1012.06 318.17 998.67 280C982.27 233.25 1035.17 211.96 1060.43 140" stroke="rgba(51, 121, 194, 0.58)" stroke-width="2"></path><path d="M1400 75.38C1379.33 75.38 1345.56 23.77 1345.56 0C1345.56 -13.92 1372.78 0 1400 0C1410.89 0 1421.78 -8.19 1421.78 0C1421.78 29.5 1417.44 75.38 1400 75.38" stroke="rgba(51, 121, 194, 0.58)" stroke-width="2"></path><path d="M1436.52 140C1436.52 112.46 1502.66 96.73 1540 96.73C1554.4 96.73 1540 118.37 1540 140C1540 177.19 1559.07 214.38 1540 214.38C1507.33 214.38 1436.52 171.29 1436.52 140" stroke="rgba(51, 121, 194, 0.58)" stroke-width="2"></path><path d="M0 269.63C65.21 256.32 76.01 247.26 140 251.43C155.6 252.45 159.18 266.68 159.18 280C159.18 290.43 152.84 297.59 140 298.92C73.25 305.83 62.63 304.93 0 296.47C-7.37 295.47 0 288.24 0 280C0 274.82 -4.79 270.61 0 269.63" stroke="rgba(51, 121, 194, 0.58)" stroke-width="2"></path><path d="M694.4 280C694.4 277.11 697.35 278.03 700 278.03C701.49 278.03 702.69 278.35 702.69 280C702.69 349.33 702.07 420 700 420C697.93 420 694.4 348.1 694.4 280" stroke="rgba(51, 121, 194, 0.58)" stroke-width="2"></path><path d="M84.85 560C84.85 553.84 110.97 543.1 140 536.36C208.54 520.45 218.63 506.16 280 514.71C303.44 517.98 309.62 545.37 309.62 560C309.62 568.01 294.81 560 280 560C210 560 210 560 140 560C112.43 560 84.85 565.66 84.85 560" stroke="rgba(51, 121, 194, 0.58)" stroke-width="2"></path><path d="M560 560C560 518.99 648.05 420 700 420C738.24 420 740.38 505.19 740.38 560C740.38 575.19 720.19 560 700 560C630 560 560 588.99 560 560" stroke="rgba(51, 121, 194, 0.58)" stroke-width="2"></path></g><defs><mask id="SvgjsMask1000"><rect width="1440" height="560" fill="#ffffff"></rect></mask></defs></svg>