<svg width="63" height="89" viewBox="0 0 63 89" fill="none" xmlns="http://www.w3.org/2000/svg">
<g id="Dotted Shape">
<ellipse id="Ellipse 11" cx="60.2995" cy="87.4849" rx="2.18789" ry="1.42021" transform="rotate(180 60.2995 87.4849)" fill="#3056D3"/>
<ellipse id="Ellipse 16" cx="60.2995" cy="74.9871" rx="2.18789" ry="1.42021" transform="rotate(180 60.2995 74.9871)" fill="#3056D3"/>
<ellipse id="Ellipse 21" cx="60.2995" cy="62.4892" rx="2.18789" ry="1.42021" transform="rotate(180 60.2995 62.4892)" fill="#3056D3"/>
<ellipse id="Ellipse 31" cx="60.2995" cy="38.3457" rx="2.18789" ry="1.42021" transform="rotate(180 60.2995 38.3457)" fill="#3056D3"/>
<ellipse id="Ellipse 41" cx="60.2995" cy="13.634" rx="2.18789" ry="1.42021" transform="rotate(180 60.2995 13.634)" fill="#3056D3"/>
<ellipse id="Ellipse 26" cx="60.2995" cy="50.2754" rx="2.18789" ry="1.42021" transform="rotate(180 60.2995 50.2754)" fill="#3056D3"/>
<ellipse id="Ellipse 32" cx="60.2995" cy="26.1319" rx="2.18789" ry="1.42021" transform="rotate(180 60.2995 26.1319)" fill="#3056D3"/>
<ellipse id="Ellipse 42" cx="60.2995" cy="1.42021" rx="2.18789" ry="1.42021" transform="rotate(180 60.2995 1.42021)" fill="#3056D3"/>
<ellipse id="Ellipse 12" cx="41.0471" cy="87.4849" rx="2.18789" ry="1.42021" transform="rotate(180 41.0471 87.4849)" fill="#3056D3"/>
<ellipse id="Ellipse 17" cx="41.0471" cy="74.9871" rx="2.18789" ry="1.42021" transform="rotate(180 41.0471 74.9871)" fill="#3056D3"/>
<ellipse id="Ellipse 22" cx="41.0471" cy="62.4893" rx="2.18789" ry="1.42021" transform="rotate(180 41.0471 62.4893)" fill="#3056D3"/>
<ellipse id="Ellipse 33" cx="41.0471" cy="38.3455" rx="2.18789" ry="1.42021" transform="rotate(180 41.0471 38.3455)" fill="#3056D3"/>
<ellipse id="Ellipse 43" cx="41.0471" cy="13.6341" rx="2.18789" ry="1.42021" transform="rotate(180 41.0471 13.6341)" fill="#3056D3"/>
<ellipse id="Ellipse 27" cx="41.0471" cy="50.2755" rx="2.18789" ry="1.42021" transform="rotate(180 41.0471 50.2755)" fill="#3056D3"/>
<ellipse id="Ellipse 34" cx="41.0471" cy="26.1319" rx="2.18789" ry="1.42021" transform="rotate(180 41.0471 26.1319)" fill="#3056D3"/>
<ellipse id="Ellipse 44" cx="41.0471" cy="1.42024" rx="2.18789" ry="1.42021" transform="rotate(180 41.0471 1.42024)" fill="#3056D3"/>
<ellipse id="Ellipse 13" cx="21.7914" cy="87.4849" rx="2.18789" ry="1.42021" transform="rotate(180 21.7914 87.4849)" fill="#3056D3"/>
<ellipse id="Ellipse 18" cx="21.7914" cy="74.9871" rx="2.18789" ry="1.42021" transform="rotate(180 21.7914 74.9871)" fill="#3056D3"/>
<ellipse id="Ellipse 23" cx="21.7914" cy="62.4893" rx="2.18789" ry="1.42021" transform="rotate(180 21.7914 62.4893)" fill="#3056D3"/>
<ellipse id="Ellipse 35" cx="21.7914" cy="38.3455" rx="2.18789" ry="1.42021" transform="rotate(180 21.7914 38.3455)" fill="#3056D3"/>
<ellipse id="Ellipse 45" cx="21.7914" cy="13.6339" rx="2.18789" ry="1.42021" transform="rotate(180 21.7914 13.6339)" fill="#3056D3"/>
<ellipse id="Ellipse 28" cx="21.7914" cy="50.2755" rx="2.18789" ry="1.42021" transform="rotate(180 21.7914 50.2755)" fill="#3056D3"/>
<ellipse id="Ellipse 36" cx="21.7914" cy="26.1319" rx="2.18789" ry="1.42021" transform="rotate(180 21.7914 26.1319)" fill="#3056D3"/>
<ellipse id="Ellipse 46" cx="21.7914" cy="1.42024" rx="2.18789" ry="1.42021" transform="rotate(180 21.7914 1.42024)" fill="#3056D3"/>
<ellipse id="Ellipse 14" cx="2.53907" cy="87.4849" rx="2.18789" ry="1.42021" transform="rotate(180 2.53907 87.4849)" fill="#3056D3"/>
<ellipse id="Ellipse 19" cx="2.53907" cy="74.9871" rx="2.18789" ry="1.42021" transform="rotate(180 2.53907 74.9871)" fill="#3056D3"/>
<ellipse id="Ellipse 24" cx="2.53907" cy="62.4893" rx="2.18789" ry="1.42021" transform="rotate(180 2.53907 62.4893)" fill="#3056D3"/>
<ellipse id="Ellipse 37" cx="2.53907" cy="38.3455" rx="2.18789" ry="1.42021" transform="rotate(180 2.53907 38.3455)" fill="#3056D3"/>
<ellipse id="Ellipse 47" cx="2.53907" cy="13.6341" rx="2.18789" ry="1.42021" transform="rotate(180 2.53907 13.6341)" fill="#3056D3"/>
<ellipse id="Ellipse 29" cx="2.53907" cy="50.2755" rx="2.18789" ry="1.42021" transform="rotate(180 2.53907 50.2755)" fill="#3056D3"/>
<ellipse id="Ellipse 38" cx="2.53907" cy="26.1319" rx="2.18789" ry="1.42021" transform="rotate(180 2.53907 26.1319)" fill="#3056D3"/>
<ellipse id="Ellipse 48" cx="2.53907" cy="1.42024" rx="2.18789" ry="1.42021" transform="rotate(180 2.53907 1.42024)" fill="#3056D3"/>
</g>
</svg>
