<?xml version="1.0" standalone="no"?>
<!DOCTYPE svg PUBLIC "-//W3C//DTD SVG 20010904//EN"
 "http://www.w3.org/TR/2001/REC-SVG-20010904/DTD/svg10.dtd">
<svg version="1.0" xmlns="http://www.w3.org/2000/svg"
 width="225.000000pt" height="225.000000pt" viewBox="0 0 225.000000 225.000000"
 preserveAspectRatio="xMidYMid meet">

<g transform="translate(0.000000,225.000000) scale(0.100000,-0.100000)"
fill="#FFFFFF" stroke="none">
<path d="M705 2006 c-16 -7 -37 -22 -46 -32 -33 -39 -416 -671 -423 -698 -10
-39 10 -91 45 -121 l31 -25 436 0 c415 0 438 1 466 19 52 35 68 87 45 148 -19
51 -414 684 -435 698 -33 21 -86 26 -119 11z m259 -429 c108 -175 196 -322
196 -327 0 -11 -802 -15 -812 -5 -5 5 364 617 393 651 7 8 16 11 20 7 4 -4 96
-151 203 -326z"/>
<path d="M717 1702 c-26 -28 -24 -202 1 -225 25 -22 48 -21 72 3 17 17 20 33
20 110 0 77 -3 93 -20 110 -25 25 -52 26 -73 2z"/>
<path d="M721 1374 c-23 -17 -28 -63 -9 -82 18 -18 63 -14 83 8 40 44 -24 108
-74 74z"/>
<path d="M1382 1778 c-8 -8 -12 -47 -12 -110 l0 -98 -34 0 c-25 0 -39 -7 -50
-22 -21 -30 -20 -44 4 -68 18 -18 33 -20 130 -20 l110 0 0 -95 0 -95 -68 0
c-40 0 -73 -5 -80 -12 -7 -7 -12 -38 -12 -69 0 -35 -5 -61 -12 -66 -48 -30
-285 -129 -293 -122 -13 13 -59 11 -73 -3 -7 -7 -12 -20 -12 -29 0 -12 -23
-28 -70 -50 -48 -22 -72 -39 -76 -54 -3 -11 24 -130 59 -263 35 -133 61 -244
59 -247 -3 -3 -22 -5 -41 -5 -48 0 -81 -24 -81 -59 0 -39 17 -51 76 -51 70 0
142 25 201 69 l48 37 25 -24 c14 -13 50 -36 80 -51 49 -23 67 -26 160 -26 93
0 112 3 160 26 30 15 66 37 80 50 l25 24 42 -32 c57 -43 143 -73 206 -73 60 0
77 12 77 51 0 36 -33 59 -82 59 -26 0 -38 4 -38 14 0 8 27 119 61 245 33 127
59 241 57 253 -2 17 -20 31 -70 55 l-68 33 0 139 c0 181 1 180 -130 183 l-95
3 -5 138 c-4 108 -8 140 -20 147 -8 5 -43 10 -77 10 l-63 0 0 88 c0 101 -14
132 -59 132 -15 0 -32 -5 -39 -12z m378 -699 c0 -62 -3 -80 -13 -76 -7 2 -70
30 -140 62 -97 44 -127 62 -127 76 0 18 10 19 140 19 l140 0 0 -81z m127 -263
c2 -2 -20 -94 -49 -203 l-53 -200 -27 20 c-36 27 -101 26 -136 -2 -80 -64
-101 -74 -172 -79 -90 -6 -145 10 -205 59 -26 21 -57 40 -69 41 -40 3 -71 -3
-94 -18 -13 -9 -25 -14 -27 -12 -5 6 -104 392 -101 396 2 1 108 49 235 106
l232 103 231 -103 c127 -57 233 -106 235 -108z"/>
</g>
</svg>
