<svg version="1.0" xmlns="http://www.w3.org/2000/svg"
 width="100.000000pt" height="100.000000pt" viewBox="0 0 100.000000 100.000000"
 preserveAspectRatio="xMidYMid meet">

<g transform="translate(0.000000,100.000000) scale(0.100000,-0.100000)"
fill="#ffffff" stroke="none">
<path d="M314 922 c-93 -33 -166 -100 -207 -189 -34 -74 -31 -199 6 -275 35
-72 93 -130 165 -165 49 -24 69 -28 142 -28 73 0 93 4 144 29 l58 29 129 -129
129 -129 27 28 28 27 -128 128 -129 129 30 47 c106 167 39 393 -145 482 -72
36 -176 42 -249 16z m240 -56 c105 -51 161 -144 161 -266 0 -85 -21 -142 -74
-203 -82 -92 -237 -121 -353 -64 -160 79 -215 278 -118 430 80 126 246 170
384 103z"/>
<path d="M260 698 c0 -61 0 -61 19 -40 10 12 23 22 28 22 5 0 27 -18 48 -40
l39 -40 -41 -42 -42 -42 -26 24 -25 23 0 -61 0 -62 62 0 61 0 -23 25 -24 26
42 42 42 42 42 -42 42 -42 -24 -26 -23 -25 61 0 62 0 0 62 0 61 -25 -23 -26
-24 -42 42 -41 42 39 40 c21 22 43 40 48 40 5 0 18 -10 28 -22 19 -21 19 -21
19 40 l0 62 -55 0 c-52 0 -73 -14 -40 -26 24 -10 18 -27 -25 -69 l-40 -39 -40
39 c-43 42 -49 59 -25 69 33 12 12 26 -40 26 l-55 0 0 -62z"/>
</g>
</svg>